<?xml version="1.0" encoding="iso-8859-1"?>
<!-- Uploaded to: SVG Repo, www.svgrepo.com, Generator: SVG Repo Mixer Tools -->
<svg version="1.1" id="Layer_1" xmlns="http://www.w3.org/2000/svg" xmlns:xlink="http://www.w3.org/1999/xlink" 
	 viewBox="0 0 512 512" xml:space="preserve">
<path style="fill:#1C72BF;" d="M511.96,252.837C510.263,112.912,396.327,0,256,0C114.615,0,0,114.616,0,256
	c0,108.506,67.511,201.239,162.816,238.503L511.96,252.837z"/>
<path style="fill:#134C7F;" d="M512,256c0-1.057-0.027-2.108-0.04-3.163l-88.185-88.185l-11.579,11.579l-81.622-81.622
	L85.704,417.391l77.112,77.113C191.695,505.795,223.122,512,256,512C397.384,512,512,397.384,512,256z"/>
<polygon style="fill:#FDA409;" points="330.574,395.13 330.574,94.609 208.139,94.609 158.266,256 208.139,417.391 268.614,417.391 
	"/>
<g>
	<rect x="85.704" y="94.609" style="fill:#FFC207;" width="122.435" height="322.783"/>
	<polygon style="fill:#FFC207;" points="308.313,395.13 308.313,183.652 185.878,150.261 208.139,395.13 	"/>
</g>
<polygon style="fill:#FFD23E;" points="208.139,395.13 208.139,150.261 107.965,183.652 107.965,395.13 "/>
<polygon style="fill:#F94C10;" points="308.313,183.652 308.313,116.87 208.139,116.87 167.334,150.261 208.139,183.652 "/>
<rect x="107.965" y="116.87" style="fill:#FA690E;" width="100.174" height="66.783"/>
<polygon style="fill:#FFE376;" points="286.052,161.391 286.052,139.13 208.139,139.13 176.402,150.261 208.139,161.391 "/>
<rect x="130.226" y="139.13" style="fill:#FFF3AD;" width="77.913" height="22.261"/>
<path style="fill:#5CB2FE;" d="M415.904,161.391c-6.147,0-11.13,4.983-11.13,11.13v112.66h22.261v-112.66
	C427.035,166.374,422.052,161.391,415.904,161.391z"/>
<path style="fill:#92CCFF;" d="M475.27,283.531V261.27h-22.261l-178.087,52.617l66.783,103.504h73.09v-22.084
	C451.206,371.453,475.27,330.311,475.27,283.531z"/>
<path style="fill:#C9E5FF;" d="M208.139,261.27v22.261c0,46.78,24.064,87.922,60.475,111.776v22.084h73.09V313.886L230.4,261.269
	h-22.261V261.27z"/>
<path style="fill:#FFD23E;" d="M430.748,239.009c-5.711,0-10.903,2.169-14.844,5.704c-3.94-3.532-9.129-5.699-14.838-5.699
	c-5.71,0-10.9,2.168-14.84,5.702c-3.94-3.534-9.131-5.702-14.84-5.702c-5.709,0-10.9,2.168-14.84,5.702
	c-3.94-3.534-9.131-5.702-14.84-5.702l-22.261,66.783L453.01,261.27C453.009,248.976,443.042,239.009,430.748,239.009z"/>
<g>
	<path style="fill:#FFE376;" d="M252.661,239.009c5.711,0,10.903,2.169,14.844,5.704c3.94-3.532,9.129-5.699,14.838-5.699
		c5.71,0,10.9,2.168,14.84,5.702c3.94-3.534,9.131-5.702,14.84-5.702c5.709,0,10.9,2.168,14.84,5.702
		c3.94-3.534,9.131-5.702,14.84-5.702v66.783L230.399,261.27C230.4,248.976,240.366,239.009,252.661,239.009z"/>
	<polygon style="fill:#FFE376;" points="341.693,261.265 319.443,339.189 453.009,283.526 453.009,261.265 	"/>
</g>
<g>
	<polygon style="fill:#FFF3AD;" points="230.4,261.265 230.4,283.526 341.693,339.189 341.693,261.265 	"/>
	<path style="fill:#FFF3AD;" d="M419.651,291.795c7.357-3.684,16.529-8.27,33.358-8.27c0,61.473-49.831,111.304-111.304,111.304
		c-0.011,0-33.402-55.647-33.402-55.647l33.391-55.647c16.84,0,26.001,4.575,33.358,8.259c6.322,3.15,11.309,5.643,22.305,5.643
		C408.342,297.439,413.34,294.945,419.651,291.795z"/>
</g>
<path style="fill:#FFFFFF;" d="M230.4,283.526c16.829,0,25.99,4.586,33.358,8.27c6.311,3.15,11.297,5.643,22.294,5.643
	c10.986,0,15.972-2.493,22.294-5.643c7.357-3.684,16.518-8.259,33.347-8.259V394.83C280.22,394.819,230.4,344.999,230.4,283.526z"/>
</svg>