<?xml version="1.0" ?>
<!DOCTYPE svg  PUBLIC '-//W3C//DTD SVG 1.1//EN'  'http://www.w3.org/Graphics/SVG/1.1/DTD/svg11.dtd'>
<!-- Uploaded to: SVG Repo, www.svgrepo.com, Generator: SVG Repo Mixer Tools -->
<svg fill="#000000" width="800px" height="800px" viewBox="0 0 64 64" style="fill-rule:evenodd;clip-rule:evenodd;stroke-linecap:round;stroke-linejoin:round;stroke-miterlimit:1.5;" version="1.1" xml:space="preserve" xmlns="http://www.w3.org/2000/svg" xmlns:serif="http://www.serif.com/" xmlns:xlink="http://www.w3.org/1999/xlink">
<g transform="matrix(1,0,0,1,-192,-384)">
<g id="Icon">
<g transform="matrix(1.88491,0,0,2.02804,-563.297,366.103)">
<path d="M406.242,19.317L405.521,17.726C405.376,17.406 405.302,17.063 405.302,16.716L405.302,15.133C405.302,14.861 405.064,14.64 404.771,14.64C404.478,14.64 404.241,14.861 404.241,15.133C404.241,15.133 404.241,16.063 404.241,16.716C404.241,17.194 404.344,17.668 404.543,18.109L405.265,19.7C405.378,19.951 405.69,20.069 405.959,19.963C406.229,19.857 406.356,19.568 406.242,19.317Z" style="fill:rgb(74,36,1);"/>
</g>
<g transform="matrix(2.02492,0,6.74129e-17,0.517887,-103.544,366.884)">
<path d="M150.985,122.829C150.985,122.829 151.287,121.782 151.669,120.456C152.571,117.323 153.916,117.152 154.868,120.048C154.953,120.307 155.039,120.567 155.123,120.825C156.027,123.575 157.294,123.575 158.198,120.825C158.318,120.46 158.439,120.091 158.559,119.726C159.463,116.976 160.729,116.976 161.633,119.726C161.753,120.091 161.874,120.46 161.994,120.825C162.898,123.575 164.164,123.575 165.068,120.825C165.188,120.46 165.31,120.091 165.43,119.726C166.334,116.976 167.6,116.976 168.504,119.726C168.613,120.058 168.723,120.394 168.833,120.727C169.752,123.522 171.042,123.471 171.947,120.603C172.351,119.321 172.676,118.29 172.676,118.29" style="stroke:black;stroke-width:1.35px;"/>
</g>
<path d="M252.15,423.893C252.15,423.341 251.702,422.893 251.15,422.893L197.15,422.893C196.598,422.893 196.15,423.341 196.15,423.893L196.15,434.452C196.15,435.005 196.598,435.452 197.15,435.452L251.15,435.452C251.702,435.452 252.15,435.005 252.15,434.452L252.15,423.893Z" style="fill:rgb(248,172,58);"/>
<path d="M248,423.081L248,431.418C248,431.971 247.552,432.418 247,432.418L196.15,432.23L196.15,434.452C196.15,435.005 196.598,435.452 197.15,435.452L251.15,435.452C251.702,435.452 252.15,435.005 252.15,434.452L252.15,423.893C252.15,423.341 251.702,422.893 251.15,422.893L248,423.081Z" style="fill:rgb(243,148,4);"/>
<path d="M251.15,424.893C251.702,424.893 252.15,424.446 252.15,423.893L252.15,417.973C252.15,417.42 251.702,416.973 251.15,416.973L197.15,416.973C196.598,416.973 196.15,417.42 196.15,417.973L196.15,423.893C196.15,424.446 196.598,424.893 197.15,424.893L251.15,424.893Z" style="fill:rgb(99,48,1);"/>
<path d="M247.785,416.973L247.785,422.393C247.785,422.946 247.337,423.393 246.785,423.393L196.15,423.393L196.15,423.893C196.15,424.446 196.598,424.893 197.15,424.893L251.15,424.893C251.702,424.893 252.15,424.446 252.15,423.893L252.15,417.973C252.15,417.42 251.702,416.973 251.15,416.973L247.785,416.973Z" style="fill:rgb(74,36,1);"/>
<path d="M196.396,417.394C196.138,417.69 196.078,418.109 196.24,418.466C196.403,418.822 196.76,419.051 197.152,419.05L251.152,418.972C251.63,418.971 252.041,418.631 252.132,418.161C252.223,417.691 251.968,417.223 251.524,417.044L211.575,400.968C211.18,400.809 210.727,400.918 210.447,401.239L196.396,417.394Z" style="fill:rgb(248,172,58);"/>
<path d="M250.284,416.545C250.136,416.92 249.771,417.176 249.356,417.176L196.518,417.253L196.396,417.394C196.138,417.69 196.078,418.109 196.24,418.466C196.403,418.822 196.76,419.051 197.152,419.05L251.152,418.972C251.63,418.971 252.041,418.631 252.132,418.161C252.223,417.691 251.968,417.223 251.524,417.044L250.284,416.545Z" style="fill:rgb(243,148,4);"/>
<g transform="matrix(-0.772662,0.119061,0.399687,-0.671887,523.886,376.884)">
<path d="M409.114,24.501L411.281,26.668C412.109,27.495 413.098,27.85 413.488,27.46C413.878,27.07 413.523,26.081 412.696,25.254L410.528,23.086C409.701,22.259 408.712,21.904 408.322,22.294C407.931,22.684 408.286,23.673 409.114,24.501Z" style="fill:rgb(99,48,1);"/>
</g>
<g transform="matrix(-0.456347,-0.634767,0.780068,0.0517307,390.464,672.695)">
<path d="M409.114,24.501L411.281,26.668C412.109,27.495 413.098,27.85 413.488,27.46C413.878,27.07 413.523,26.081 412.696,25.254L410.528,23.086C409.701,22.259 408.712,21.904 408.322,22.294C407.931,22.684 408.286,23.673 409.114,24.501Z" style="fill:rgb(99,48,1);"/>
</g>
<g transform="matrix(0.684962,-0.289867,-0.289867,0.733294,-50.9722,516.046)">
<path d="M420.323,27.794L422.323,29.634C423.294,30.528 424.386,30.923 424.759,30.517C425.133,30.111 424.648,29.056 423.677,28.162L421.677,26.322C420.706,25.429 419.614,25.033 419.241,25.439C418.867,25.845 419.352,26.901 420.323,27.794Z" style="fill:rgb(99,48,1);"/>
</g>
<g transform="matrix(0.614789,-0.531458,0.159337,0.807329,-40.7207,606.391)">
<path d="M405.432,29.315L407.302,31.139C407.982,31.802 408.847,32.019 409.232,31.624C409.618,31.229 409.378,30.37 408.698,29.707L406.828,27.883C406.148,27.22 405.283,27.003 404.898,27.398C404.512,27.793 404.752,28.652 405.432,29.315Z" style="fill:rgb(99,48,1);"/>
</g>
<path d="M205.515,402.587C202.265,402.587 199.628,405.22 199.628,408.461C199.628,411.702 202.265,414.334 205.515,414.334C208.765,414.334 211.402,411.702 211.402,408.461C211.402,405.22 208.765,402.587 205.515,402.587Z" style="fill:rgb(240,104,45);"/>
</g>
</g>
</svg>