<?xml version="1.0" encoding="iso-8859-1"?>
<!-- Uploaded to: SVG Repo, www.svgrepo.com, Generator: SVG Repo Mixer Tools -->
<svg version="1.1" id="Layer_1" xmlns="http://www.w3.org/2000/svg" xmlns:xlink="http://www.w3.org/1999/xlink" 
	 viewBox="0 0 512 512" xml:space="preserve">
<polygon style="fill:#F8F8F9;" points="169.639,502.747 21.591,502.747 9.253,268.338 181.976,268.338 "/>
<g>
	<polygon style="fill:#EDEDED;" points="144.964,268.338 132.627,502.747 169.639,502.747 181.976,268.338 	"/>
	<polygon style="fill:#EDEDED;" points="12.501,330.024 21.591,502.747 169.639,502.747 178.729,330.024 	"/>
	<path style="fill:#EDEDED;" d="M465.735,58.603H268.338c0,74.024-37.012,74.024-37.012,135.711v308.434h271.422V194.313
		C502.747,132.627,465.735,132.627,465.735,58.603z"/>
</g>
<path style="fill:#D8D8DA;" d="M465.735,58.603h-49.349c0,74.024,37.012,74.024,37.012,135.711v308.434h49.349V194.313
	C502.747,132.627,465.735,132.627,465.735,58.603z"/>
<path style="fill:#B4D8F1;" d="M465.735,9.253H268.338c-6.814,0-12.337,5.523-12.337,12.337v24.675
	c0,6.814,5.523,12.337,12.337,12.337h197.398c6.814,0,12.337-5.523,12.337-12.337V21.591
	C478.073,14.777,472.549,9.253,465.735,9.253z"/>
<path style="fill:#98C8ED;" d="M465.735,9.253h-49.349c6.814,0,12.337,4.419,12.337,9.87v29.61c0,5.451-5.523,9.87-12.337,9.87
	h49.349c6.814,0,12.337-4.419,12.337-9.87v-29.61C478.073,13.672,472.549,9.253,465.735,9.253z"/>
<rect x="280.675" y="218.988" style="fill:#B4D8F1;" width="172.723" height="172.723"/>
<path style="fill:#F8F8F9;" d="M401.581,271.422h-49.219l-4.207-4.207c-5.242-5.243-12.214-8.13-19.629-8.13h-0.97
	c-3.743,0-7.116,2.254-8.549,5.712c-1.432,3.458-0.64,7.437,2.006,10.083l5.172,5.173l-14.424,12.019
	c-1.997,1.664-3.203,4.092-3.32,6.689c-0.118,2.597,0.862,5.124,2.701,6.962l6.169,6.169c1.735,1.736,4.089,2.711,6.543,2.711h6.786
	v27.759c0,4.538,3.29,8.407,7.771,9.133c4.475,0.724,8.825-1.901,10.26-6.208l3.559-10.678l3.559,10.678
	c1.435,4.306,5.776,6.929,10.26,6.208c4.48-0.727,7.771-4.596,7.771-9.133V326.94h6.169v15.422c0,4.538,3.29,8.407,7.771,9.133
	c4.476,0.724,8.825-1.901,10.26-6.208l3.559-10.678l3.559,10.678c1.276,3.826,4.849,6.328,8.772,6.328
	c0.491,0,0.989-0.039,1.488-0.12c4.48-0.727,7.771-4.596,7.771-9.133v-49.349C423.172,281.108,413.485,271.422,401.581,271.422z"/>
<polygon style="fill:#D8D8DA;" points="141.717,330.024 132.627,502.747 169.639,502.747 178.729,330.024 "/>
<g>
	<path style="fill:#2E2D31;" d="M493.62,128.949c-5.425-9.902-10.547-19.255-14.103-32.225c-1.351-4.929-6.44-7.827-11.37-6.478
		c-4.929,1.351-7.828,6.441-6.477,11.37c4.129,15.061,10.02,25.82,15.719,36.222c8.642,15.778,16.105,29.405,16.105,56.475v299.181
		H240.579V194.313c0-27.071,7.463-40.696,16.105-56.474c9.035-16.494,19.18-35.017,20.709-69.984h188.342h12.337
		c5.11,0,9.253-4.143,9.253-9.253V9.253c0-5.11-4.143-9.253-9.253-9.253H256c-5.11,0-9.253,4.143-9.253,9.253v49.349
		c0,5.11,4.143,9.253,9.253,9.253h2.871c-1.408,30.024-9.691,45.16-18.42,61.093c-9.035,16.499-18.379,33.558-18.379,65.365v308.434
		c0,5.11,4.143,9.253,9.253,9.253h271.422c5.11,0,9.253-4.143,9.253-9.253V194.313C512,162.507,502.656,145.448,493.62,128.949z
		 M265.253,18.506H468.82V49.35H265.253V18.506z"/>
	<path style="fill:#2E2D31;" d="M453.398,364.561c5.11,0,9.253-4.143,9.253-9.253v-136.32c0-5.11-4.143-9.253-9.253-9.253H280.675
		c-5.11,0-9.253,4.143-9.253,9.253v172.723c0,5.11,4.143,9.253,9.253,9.253h172.723c5.11,0,9.253-4.143,9.253-9.253
		c0-5.11-4.143-9.253-9.253-9.253h-163.47V228.241h154.217v127.067C444.145,360.419,448.288,364.561,453.398,364.561z"/>
	<path style="fill:#2E2D31;" d="M181.976,259.085H9.253c-2.539,0-4.966,1.043-6.713,2.884s-2.661,4.319-2.528,6.855l12.337,234.41
		c0.259,4.914,4.319,8.767,9.241,8.767h148.048c4.921,0,8.982-3.853,9.241-8.767l12.337-234.41c0.133-2.535-0.781-5.013-2.528-6.855
		C186.942,260.127,184.515,259.085,181.976,259.085z M160.86,493.494H30.37l-8.117-154.217h110.374c5.11,0,9.253-4.143,9.253-9.253
		s-4.143-9.253-9.253-9.253H21.591c-0.105,0-0.207,0.012-0.311,0.016l-2.274-43.197h153.216L160.86,493.494z"/>
</g>
</svg>