<svg xmlns="http://www.w3.org/2000/svg" width="32" height="32" version="1" id="food"><path d="M16 0C7.164 0 0 7.164 0 16s7.164 16 16 16 16-7.164 16-16S24.836 0 16 0zM9.96 9.137c.273 0 .543.136.747.34.204.203.409.475.477.95.271.544.542 1.223.474 1.835v.136c-.068.408-.068.815-.34 1.155-.271.34-.679.543-1.222.611v3.127c.136 0 .137 0 .205.068.068.068.203.205.203.409 0 1.359.137 2.988.137 4.416 0 .203-.138.34-.274.476a.77.77 0 0 1-.543.203.77.77 0 0 1-.543-.203c-.136-.136-.273-.339-.273-.543 0-1.699.205-2.855.205-4.418 0-.204.067-.34.203-.408.068 0 .069-.068.137-.068v-3.125a1.838 1.838 0 0 1-1.157-.68c-.271-.476-.407-1.02-.34-1.564.069-.544.272-1.222.612-1.698.204-.272.341-.544.545-.68.204-.203.476-.34.748-.34zm12.913 1.425c.136 0 .272.136.34.34v2.72a.373.373 0 0 0 .203-.34V11.31c0-.136.136-.272.271-.272.136 0 .274.136.274.272v1.97c0 .476-.34.815-.748.951v2.924c.068 0 .067-.001.135.067.068.136.205.272.205.476 0 1.36.134 2.991.134 4.418 0 .272-.135.407-.271.543a.614.614 0 0 1-.475.203.774.774 0 0 1-.545-.203c-.135-.136-.271-.339-.271-.543 0-1.699.137-2.855.137-4.418 0-.272.067-.408.203-.476.068 0 .069-.067.137-.067v-2.924c-.408-.136-.748-.475-.748-.95V11.31c0-.136.067-.272.203-.272.204-.068.34.136.34.272v1.902c0 .136.069.272.205.34v-2.719c0-.136.067-.204.271-.271zm-6.525 1.157c2.242 0 4.078 1.835 4.078 4.01 0 2.174-1.836 4.01-4.078 4.01-2.243 0-4.077-1.836-4.077-4.01 0-2.175 1.834-4.01 4.077-4.01zm0 .543c-1.903 0-3.466 1.564-3.534 3.467 0 1.902 1.63 3.464 3.534 3.464a3.48 3.48 0 0 0 3.466-3.464 3.482 3.482 0 0 0-3.466-3.467zm0 .816c1.495 0 2.718 1.223 2.718 2.65 0 1.428-1.223 2.65-2.718 2.65a2.654 2.654 0 0 1-2.65-2.65 2.654 2.654 0 0 1 2.65-2.65z"></path></svg>