<?xml version="1.0" encoding="iso-8859-1"?>
<!-- Uploaded to: SVG Repo, www.svgrepo.com, Generator: SVG Repo Mixer Tools -->
<svg height="800px" width="800px" version="1.1" id="Layer_1" xmlns="http://www.w3.org/2000/svg" xmlns:xlink="http://www.w3.org/1999/xlink" 
	 viewBox="0 0 511.999 511.999" xml:space="preserve">
<path style="fill:#B3B3B3;" d="M492.3,286.926c18.717,32.399,7.626,73.855-24.783,92.573c-32.41,18.728-73.855,7.626-92.573-24.773
	c-3.904-6.755-8.153-19.997-12.435-36.734c5.271-14.801,9.498-30.549,12.306-46.997c0.785-4.582,1.431-9.089,1.936-13.511v-0.011
	c0.484,0.021,0.968,0.033,1.452,0.033c1.861,0,3.7-0.108,5.508-0.323c4.776,28.086,12.059,66.316,17.835,76.308
	c9.423,16.318,30.291,21.901,46.598,12.477c16.318-9.423,21.901-30.291,12.477-46.608c-5.529-9.562-32.711-33.195-54.278-51.127
	c9.272-6.873,15.952-17.06,18.264-28.806C455.867,246.642,484.62,273.631,492.3,286.926z"/>
<path style="fill:#FBCDCB;" d="M460.622,299.361c9.423,16.318,3.84,37.186-12.477,46.608c-16.308,9.423-37.175,3.84-46.598-12.477
	c-5.776-9.993-13.058-48.222-17.835-76.308c8.423-0.968,16.156-4.152,22.632-8.95C427.911,266.166,455.093,289.798,460.622,299.361z
	"/>
<path style="fill:#FFF3E6;" d="M85.804,220.805c-0.785-3.41-1.194-6.948-1.194-10.596c0-20.297,12.779-37.595,30.732-44.317
	c-0.387-3.238-0.614-6.519-0.614-9.864c0-45.351,36.767-82.106,82.106-82.106c22.761,0,43.36,9.262,58.226,24.213
	c14.876-14.952,35.465-24.213,58.226-24.213c45.351,0,82.106,36.755,82.106,82.106c0,3.346-0.215,6.626-0.613,9.864
	c17.953,6.723,30.732,24.02,30.732,44.317c0,3.152-0.312,6.239-0.903,9.218c-2.312,11.746-8.992,21.933-18.264,28.806
	c-6.476,4.797-14.21,7.982-22.632,8.95c-1.807,0.215-3.646,0.323-5.508,0.323c-0.484,0-0.968-0.011-1.452-0.033
	c-16.641-0.495-31.13-9.595-39.154-22.998c-7.68,2.377-15.844,3.658-24.311,3.658c-22.761,0-43.349-9.262-58.226-24.213
	c-14.866,14.952-35.465,24.213-58.226,24.213c-8.465,0-16.63-1.28-24.311-3.658c-8.024,13.414-22.513,22.503-39.154,23.009
	c-0.484,0.011-0.968,0.021-1.452,0.021c-1.237,0-2.453-0.043-3.668-0.14c-8.692-0.666-16.726-3.679-23.471-8.411
	C95.356,242.34,88.45,232.379,85.804,220.805z"/>
<path style="fill:#B3B3B3;" d="M376.752,257.474v0.011c-0.506,4.421-1.151,8.929-1.936,13.511
	c-2.807,16.447-7.035,32.195-12.306,46.997c-25.289,70.973-74.694,120.088-107.449,120.088c-32.291,0-80.751-47.727-106.352-117.076
	c-5.787-15.673-10.402-32.443-13.403-50.008c-0.774-4.582-1.42-9.089-1.936-13.511c16.641-0.506,31.13-9.595,39.154-23.009
	c7.68,2.377,15.844,3.658,24.311,3.658c22.761,0,43.36-9.262,58.226-24.213c14.876,14.952,35.465,24.213,58.226,24.213
	c8.465,0,16.63-1.28,24.311-3.658C345.622,247.879,360.111,256.979,376.752,257.474z M255.061,383.737
	c12.425,0,22.492-10.068,22.492-22.492c0-12.435-10.068-13.607-22.492-13.607c-12.425,0-22.503,1.172-22.503,13.607
	C232.558,373.668,242.637,383.737,255.061,383.737z"/>
<path style="fill:#666666;" d="M277.553,361.244c0,12.424-10.068,22.492-22.492,22.492c-12.425,0-22.503-10.068-22.503-22.492
	c0-12.435,10.079-13.607,22.503-13.607C267.484,347.637,277.553,348.809,277.553,361.244z"/>
<path style="fill:#B3B3B3;" d="M148.709,321.004c-4.023,15.307-7.992,27.376-11.66,33.723
	c-18.717,32.399-60.163,43.501-92.572,24.773c-32.41-18.717-43.501-60.173-24.783-92.573c7.551-13.07,35.465-39.37,66.11-66.122
	c2.647,11.574,9.552,21.535,18.975,28.15c-21.417,17.835-47.954,40.973-53.407,50.406c-9.423,16.318-3.84,37.186,12.477,46.608
	c16.308,9.423,37.175,3.84,46.598-12.477c5.766-9.972,13.026-48.05,17.802-76.125c1.215,0.097,2.431,0.14,3.668,0.14
	c0.484,0,0.968-0.011,1.452-0.021c0.516,4.421,1.161,8.929,1.936,13.511C138.308,288.561,142.922,305.331,148.709,321.004z"/>
<path style="fill:#FBCDCB;" d="M128.25,257.366c-4.776,28.075-12.036,66.154-17.802,76.125
	c-9.423,16.318-30.291,21.901-46.598,12.477c-16.318-9.423-21.901-30.291-12.477-46.608c5.454-9.433,31.99-32.572,53.407-50.406
	C111.523,253.688,119.558,256.7,128.25,257.366z"/>
<path d="M501.459,281.635c-7.024-12.159-28.506-33.912-65.598-66.42c0.144-1.664,0.228-3.335,0.228-5.005
	c0-21.264-11.85-40.787-30.183-50.826c0.042-1.124,0.065-2.245,0.065-3.356c0-20.184-6.374-39.371-18.436-55.486
	c-3.499-4.678-10.128-5.633-14.806-2.131c-4.677,3.5-5.632,10.129-2.131,14.806c9.301,12.429,14.216,27.233,14.216,42.812
	c0,2.806-0.18,5.692-0.534,8.573c-0.596,4.853,2.212,9.482,6.79,11.196c14.273,5.346,23.864,19.174,23.864,34.411
	c0,2.407-0.236,4.816-0.704,7.176c-1.76,8.937-6.798,16.876-14.183,22.351c-5.147,3.812-11.213,6.212-17.59,6.944
	c-1.702,0.203-3.477,0.304-5.256,0.226c-0.046-0.002-0.091-0.003-0.136-0.004c-12.559-0.374-23.921-7.05-30.392-17.859
	c-2.505-4.183-7.543-6.114-12.202-4.671c-6.828,2.112-13.955,3.184-21.184,3.184c-19.177,0-37.192-7.492-50.727-21.095
	c-1.985-1.997-4.686-3.118-7.501-3.117s-5.514,1.124-7.5,3.119c-13.522,13.602-31.536,21.093-50.724,21.093
	c-7.23,0-14.356-1.072-21.183-3.184c-4.661-1.444-9.7,0.489-12.203,4.674c-6.465,10.805-17.829,17.484-30.303,17.864l-0.126,0.003
	c-1.365,0.031-2.684,0.01-3.96-0.093c-6.543-0.502-12.838-2.757-18.202-6.522c-7.486-5.255-12.721-13.015-14.744-21.865
	c-0.614-2.666-0.924-5.432-0.924-8.223c0-15.237,9.59-29.066,23.864-34.411c4.566-1.71,7.373-6.321,6.794-11.164
	c-0.363-3.023-0.538-5.839-0.538-8.607c0-39.441,32.087-71.528,71.528-71.528c19.187,0,37.201,7.491,50.724,21.094
	c1.985,1.996,4.685,3.118,7.5,3.119c0.001,0,0.001,0,0.002,0c2.815,0,5.513-1.122,7.499-3.117
	c13.536-13.604,31.551-21.096,50.727-21.096c5.868,0,11.702,0.711,17.34,2.113c5.666,1.414,11.408-2.041,12.818-7.711
	c1.41-5.669-2.043-11.408-7.711-12.818c-7.306-1.818-14.858-2.74-22.447-2.74c-21.453,0-41.783,7.235-58.224,20.557
	c-16.432-13.32-36.765-20.557-58.228-20.557c-51.106,0-92.684,41.578-92.684,92.684c0,1.115,0.022,2.231,0.065,3.356
	c-18.332,10.038-30.183,29.561-30.183,50.826c0,2.187,0.123,4.369,0.366,6.527c-36.04,31.686-56.955,52.941-63.864,64.898
	c-10.467,18.117-13.25,39.227-7.839,59.442c5.41,20.218,18.37,37.116,36.49,47.579c12.078,6.979,25.482,10.544,39.065,10.544
	c6.797,0,13.641-0.894,20.384-2.698c20.212-5.41,37.109-18.368,47.574-36.483c1.318-2.281,2.663-5.146,4.043-8.594
	c27.544,56.247,70.517,97.233,104.811,97.233c35.012,0,78.366-41.856,105.857-99.35c1.67,4.416,3.288,7.976,4.867,10.709
	c10.467,18.117,27.362,31.075,47.575,36.486c6.743,1.805,13.586,2.698,20.384,2.698c13.583,0,26.989-3.565,39.063-10.543
	c18.122-10.466,31.081-27.362,36.492-47.58C514.71,320.862,511.926,299.752,501.459,281.635z M405.445,261.273
	c37.653,31.648,44.738,41.166,46.016,43.377c6.493,11.243,2.631,25.67-8.61,32.16c-5.441,3.145-11.781,3.979-17.853,2.355
	c-6.073-1.625-11.149-5.518-14.296-10.967c-1.308-2.264-6.08-13.334-14.844-62.866C399.168,264.274,402.375,262.911,405.445,261.273
	z M105.827,261.875c3.273,1.653,6.69,2.997,10.21,3.999c-8.702,49.078-13.443,60.069-14.751,62.329
	c-3.144,5.444-8.22,9.338-14.293,10.963c-6.071,1.625-12.412,0.788-17.855-2.357c-11.239-6.489-15.1-20.915-8.611-32.153
	C61.797,302.463,68.787,293.058,105.827,261.875z M127.889,349.435c-7.639,13.224-19.973,22.682-34.726,26.632
	c-14.755,3.949-30.166,1.917-43.396-5.728c-13.226-7.639-22.686-19.974-26.636-34.732c-3.95-14.756-1.918-30.166,5.72-43.391
	c3.055-5.287,14.029-19.111,52.668-53.534c2.019,3.569,4.407,6.922,7.145,9.994c-39.652,33.637-44.711,42.379-46.454,45.393
	c-5.97,10.339-7.559,22.383-4.471,33.915c3.087,11.534,10.48,21.174,20.818,27.142c6.887,3.98,14.531,6.013,22.28,6.013
	c3.878,0,7.781-0.509,11.628-1.539c11.533-3.088,21.172-10.481,27.139-20.815c1.432-2.477,5.033-8.709,11.365-38.569
	c1.951,7.154,4.182,14.241,6.672,21.235C132.998,338.611,129.795,346.138,127.889,349.435z M303.827,397.459
	c-17.438,18.811-35.67,30.043-48.767,30.043c-12.867,0-30.802-10.914-47.975-29.198c-19.722-20.995-36.93-49.748-48.454-80.966
	c-5.774-15.639-10.115-31.831-12.895-48.106c-0.153-0.911-0.281-1.812-0.424-2.72c12.454-2.936,23.57-9.903,31.649-19.941
	c6.499,1.421,13.156,2.138,19.874,2.138c21.464,0,41.796-7.235,58.228-20.556c16.44,13.32,36.77,20.556,58.224,20.556
	c6.72,0,13.376-0.717,19.878-2.138c8.082,10.038,19.198,17.003,31.65,19.935c-0.144,0.903-0.271,1.8-0.426,2.707
	c-2.602,15.243-6.585,30.453-11.835,45.205c-0.004,0.011-0.007,0.022-0.012,0.034C341.171,346.359,323.871,375.837,303.827,397.459z
	 M488.862,335.607c-3.949,14.758-13.409,27.093-26.638,34.733c-13.228,7.642-28.639,9.676-43.394,5.726
	c-14.754-3.949-27.087-13.407-34.728-26.633c-2.049-3.547-5.513-11.81-10.554-31.015c2.507-7.299,4.732-14.692,6.653-22.144
	c6.845,33.265,10.692,39.926,12.184,42.507c5.971,10.338,15.609,17.732,27.142,20.82c3.847,1.03,7.75,1.539,11.629,1.539
	c7.746,0,15.392-2.033,22.277-6.011c10.339-5.971,17.733-15.611,20.82-27.144c3.087-11.531,1.499-23.575-4.473-33.919
	c-1.762-3.046-6.889-11.909-47.531-46.298c2.69-3.147,5.019-6.569,6.969-10.201c39.612,35.192,50.819,49.276,53.923,54.65
	C490.78,305.442,492.812,320.851,488.862,335.607z"/>
<path d="M211.206,264.817c-5.841,0-10.578,4.737-10.578,10.578c0,5.68-4.62,10.302-10.301,10.302
	c-5.687,0-10.312-4.621-10.312-10.302c0-5.841-4.737-10.578-10.578-10.578s-10.578,4.737-10.578,10.578
	c0,17.345,14.117,31.457,31.467,31.457c17.344,0,31.456-14.112,31.456-31.457C221.784,269.553,217.047,264.817,211.206,264.817z"/>
<path d="M338.382,264.817c-5.841,0-10.578,4.737-10.578,10.578c0,5.68-4.621,10.302-10.302,10.302
	c-5.686,0-10.311-4.621-10.311-10.302c0-5.841-4.737-10.578-10.578-10.578c-5.841,0-10.578,4.737-10.578,10.578
	c0,17.345,14.116,31.457,31.466,31.457c17.345,0,31.457-14.112,31.457-31.457C348.96,269.553,344.224,264.817,338.382,264.817z"/>
<path d="M275.338,340.145c-5.643-2.562-12.188-3.087-20.277-3.087s-14.635,0.525-20.281,3.085
	c-8.255,3.745-12.801,11.238-12.801,21.099c0,18.235,14.839,33.07,33.081,33.07c18.235,0,33.07-14.834,33.07-33.07
	C288.13,351.383,283.588,343.89,275.338,340.145z M255.061,373.158c-6.576,0-11.925-5.345-11.925-11.915
	c0-0.987,0.115-1.519,0.183-1.744c0.832-0.52,3.465-1.285,11.743-1.285c8.266,0,10.899,0.764,11.732,1.282
	c0.067,0.226,0.183,0.761,0.183,1.747C266.975,367.814,261.631,373.158,255.061,373.158z"/>
<path d="M363.848,78.337c-4.894-3.191-11.447-1.806-14.636,3.088c-3.19,4.894-1.808,11.447,3.088,14.636
	c0.478,0.312,0.953,0.63,1.424,0.953c1.829,1.255,3.912,1.855,5.973,1.855c3.37,0,6.682-1.608,8.733-4.596
	c3.303-4.818,2.077-11.402-2.741-14.706C365.081,79.151,364.467,78.739,363.848,78.337z"/>
</svg>