<?xml version="1.0" encoding="iso-8859-1"?>
<!-- Uploaded to: SVG Repo, www.svgrepo.com, Generator: SVG Repo Mixer Tools -->
<svg version="1.1" id="Layer_1" xmlns="http://www.w3.org/2000/svg" xmlns:xlink="http://www.w3.org/1999/xlink" 
	 viewBox="0 0 512 512" xml:space="preserve">
<path style="fill:#F8F8F9;" d="M57.681,502.747h125.217c29.238-19.999,48.428-39.354,48.428-91.707H9.253
	C9.253,463.393,28.443,482.748,57.681,502.747z"/>
<path style="fill:#EDEDED;" d="M194.313,411.04c0,52.354-19.19,71.708-48.428,91.707h37.012
	c29.238-19.999,48.428-39.354,48.428-91.707H194.313z"/>
<path style="fill:#F8E99B;" d="M13.37,446.406c7.124,25.416,23.057,41.804,44.31,56.341h125.217
	c21.252-14.537,37.187-30.924,44.31-56.341H13.37z"/>
<path style="fill:#F6E27D;" d="M190.196,446.406c-7.124,25.416-23.057,41.804-44.31,56.341h37.012
	c21.252-14.537,37.187-30.924,44.31-56.341H190.196z"/>
<path style="fill:#F8E99B;" d="M502.747,194.313c0-40.882-33.142-74.024-74.024-74.024V46.265h-74.024v74.024
	c-40.882,0-74.024,33.142-74.024,74.024c0,0,0,223.365,0,289.93c0,10.22,8.286,18.504,18.506,18.504h185.06
	c10.22,0,18.506-8.286,18.506-18.506V194.313z"/>
<path style="fill:#F6E27D;" d="M502.747,194.313c0-40.882-33.142-74.024-74.024-74.024V46.265h-37.012v74.024
	c40.882,0,74.024,33.142,74.024,74.024v289.928c0,10.22-8.286,18.506-18.506,18.506h37.012c10.22,0,18.506-8.286,18.506-18.506
	V194.313z"/>
<g>
	<rect x="330.024" y="194.313" style="fill:#F8F8F9;" width="123.373" height="148.048"/>
	<path style="fill:#F8F8F9;" d="M330.024,379.374c0,34.068,27.618,61.687,61.687,61.687s61.687-27.618,61.687-61.687v-12.337
		H330.024V379.374z"/>
</g>
<rect x="330.024" y="9.253" style="fill:#B29A7E;" width="123.373" height="49.349"/>
<rect x="416.386" y="9.253" style="fill:#A58868;" width="37.012" height="49.349"/>
<rect x="280.675" y="330.024" style="fill:#DC4161;" width="222.072" height="49.349"/>
<rect x="465.735" y="330.024" style="fill:#C5142C;" width="37.012" height="49.349"/>
<ellipse transform="matrix(0.7071 -0.7071 0.7071 0.7071 -70.6473 353.7624)" style="fill:#95D5A7;" cx="391.705" cy="262.16" rx="37.012" ry="24.674"/>
<ellipse transform="matrix(0.7071 -0.7071 0.7071 0.7071 -49.854 362.3849)" style="fill:#80CB93;" cx="412.51" cy="241.372" rx="7.601" ry="9.407"/>
<g>
	<path style="fill:#2E2D31;" d="M437.976,111.547V67.855h15.422c5.111,0,9.253-4.142,9.253-9.253V9.253
		c0-5.111-4.142-9.253-9.253-9.253H330.024c-5.111,0-9.253,4.142-9.253,9.253v49.349c0,5.111,4.142,9.253,9.253,9.253h15.422v43.701
		c-26.044,2.936-49.583,18.127-62.877,41.112c-2.559,4.423-1.047,10.083,3.377,12.642c1.46,0.844,3.052,1.245,4.624,1.245
		c3.195,0,6.303-1.657,8.018-4.622c11.558-19.979,33.059-32.392,56.111-32.392c5.111,0,9.253-4.142,9.253-9.253V67.855h55.518
		v52.434c0,5.111,4.142,9.253,9.253,9.253c35.714,0,64.771,29.057,64.771,64.771v86.361c0,5.111,4.142,9.253,9.253,9.253
		c5.111,0,9.253-4.142,9.253-9.253v-86.361C512,151.521,479.555,116.165,437.976,111.547z M339.277,18.506h104.867v30.843H339.277
		V18.506z"/>
	<path style="fill:#2E2D31;" d="M502.747,320.771h-40.096V194.313c0-5.111-4.142-9.253-9.253-9.253H330.024
		c-5.111,0-9.253,4.142-9.253,9.253v126.458h-30.843V194.313c0-5.111-4.142-9.253-9.253-9.253c-5.111,0-9.253,4.142-9.253,9.253
		v135.711v49.349v104.87c0,15.304,12.453,27.757,27.759,27.757h185.06C499.547,512,512,499.547,512,484.241V379.374v-49.349
		C512,324.913,507.858,320.771,502.747,320.771z M339.277,203.566h104.867v117.205H339.277V203.566z M493.494,339.277v30.843
		H289.928v-30.843H493.494z M443.311,388.627c-4.385,24.512-25.846,43.181-51.6,43.181s-47.215-18.669-51.6-43.181H443.311z
		 M484.241,493.494h-185.06c-5.103,0-9.253-4.149-9.253-9.251v-95.617h31.466c4.551,34.758,34.337,61.687,70.317,61.687
		s65.765-26.929,70.317-61.687h31.466v95.614C493.494,489.344,489.344,493.494,484.241,493.494z"/>
	<path style="fill:#2E2D31;" d="M367.72,238.179c-18.343,18.344-22.175,43.252-8.723,56.705c5.411,5.41,12.672,8.024,20.615,8.024
		c11.808,0,25.123-5.78,36.09-16.747c0.001,0,0.001,0,0.001-0.001c18.343-18.344,22.175-43.252,8.723-56.705
		C410.971,216.002,386.064,219.833,367.72,238.179z M372.083,281.796c-5.158-5.157-2.845-18.965,8.721-30.532
		c5.209-5.209,10.869-8.534,15.992-10.152c0.869,3.657,2.913,7.246,5.82,10.151c2.904,2.905,6.491,4.95,10.145,5.818
		c-1.617,5.124-4.934,10.783-10.144,15.992C391.05,284.642,377.242,286.959,372.083,281.796z"/>
	<path style="fill:#2E2D31;" d="M231.325,401.787H9.253c-5.111,0-9.253,4.142-9.253,9.253c0,39.739,19.609,76.878,52.457,99.344
		c1.538,1.054,3.361,1.616,5.224,1.616h125.217c1.864,0,3.685-0.563,5.224-1.616c32.847-22.468,52.457-59.605,52.457-99.344
		C240.578,405.928,236.437,401.787,231.325,401.787z M179.967,493.494H60.611c-11.528-8.357-21.006-18.901-28.034-30.843h149.399
		c5.111,0,9.253-4.142,9.253-9.253c0-5.111-4.142-9.253-9.253-9.253H24.039c-2.635-7.655-4.366-15.657-5.114-23.852H221.65
		C218.995,449.443,203.876,476.161,179.967,493.494z"/>
</g>
</svg>