<?xml version="1.0" encoding="iso-8859-1"?>
<!-- Uploaded to: SVG Repo, www.svgrepo.com, Generator: SVG Repo Mixer Tools -->
<svg height="800px" width="800px" version="1.1" id="Layer_1" xmlns="http://www.w3.org/2000/svg" xmlns:xlink="http://www.w3.org/1999/xlink" 
	 viewBox="0 0 512 512" xml:space="preserve">
<path style="fill:#7F7F7F;" d="M59.806,8.61h23.929c22.327,0,40.593,18.045,40.593,40.102v55.221
	c0,28.555-23.647,51.919-52.555,51.919h-0.005c-28.907,0-52.555-23.362-52.555-51.919V48.712C19.213,26.656,37.479,8.61,59.806,8.61
	L59.806,8.61z"/>
<g>
	<path style="fill:#9E9E9E;" d="M83.735,8.61c5.658,0,11.053,1.162,15.957,3.252c1.999,4.731,3.109,9.912,3.109,15.337V82.42
		c0,28.556-23.647,51.919-52.555,51.919h-0.005c-9.014,0-17.517-2.273-24.95-6.265c-3.873-7.224-6.079-15.438-6.079-24.14V48.712
		c0-22.057,18.266-40.102,40.593-40.102H83.735z"/>
	<path style="fill:#9E9E9E;" d="M468.629,8.61v270.75h-16.841c-27.448,0-54.404-22.552-49.903-49.299L439.173,8.61H468.629
		L468.629,8.61z"/>
</g>
<path style="fill:#7F7F7F;" d="M468.629,221.605v57.755h-16.841c-27.448,0-54.404-22.552-49.903-49.299l6.493-38.563
	L468.629,221.605z M468.629,73.821V8.61h-29.456l-7.842,46.574L468.629,73.821z"/>
<path style="fill:#C13421;" d="M104.539,384.205v33.918v18.968v33.917c0,17.811-14.75,32.382-32.778,32.382
	c-18.031,0-32.781-14.571-32.781-32.382V437.09v-18.968v-33.918c0-17.811,14.75-32.382,32.781-32.382
	C89.79,351.824,104.539,366.395,104.539,384.205z M460.008,351.824c-18.031,0-32.781,14.571-32.781,32.382v33.918v18.968v33.917
	c0,17.811,14.75,32.382,32.781,32.382c18.029,0,32.778-14.571,32.778-32.382V437.09v-18.968v-33.918
	C492.786,366.395,478.037,351.824,460.008,351.824z M257.266,351.824c-18.031,0-32.781,14.571-32.781,32.382v33.918v18.968v33.917
	c0,17.811,14.75,32.382,32.781,32.382c18.029,0,32.778-14.571,32.778-32.382V437.09v-18.968v-33.918
	C290.044,366.395,275.294,351.824,257.266,351.824z"/>
<path style="fill:#FF4328;" d="M104.539,384.205v33.918v18.967v33.918c0,17.811-14.75,32.382-32.778,32.382
	c-0.001,0-0.001,0-0.001,0V351.824c0,0,0,0,0.001,0C89.79,351.824,104.539,366.395,104.539,384.205z M460.008,351.824
	C460.008,351.824,460.007,351.824,460.008,351.824l-0.001,151.565h0.001c18.029,0,32.778-14.571,32.778-32.382v-33.918v-18.967
	v-33.918C492.786,366.395,478.037,351.824,460.008,351.824z M257.266,351.824h-0.001v151.565h0.001
	c18.029,0,32.778-14.571,32.778-32.382v-33.918v-18.967v-33.918C290.044,366.395,275.294,351.824,257.266,351.824z"/>
<path d="M248.666,104.899V16.561c0-4.568,3.855-8.271,8.61-8.271c4.756,0,8.61,3.704,8.61,8.271v88.336
	c0,4.568-3.854,8.271-8.61,8.271C252.521,113.169,248.666,109.466,248.666,104.899z M318.443,16.561v91.626
	c0,29.298-22.893,53.594-52.557,57.589v175.736c0,0.877-0.144,1.722-0.408,2.515c18.901,3.784,33.176,20.359,33.176,40.178v86.803
	c0,22.603-18.566,40.991-41.388,40.991c-22.823,0-41.391-18.389-41.391-40.991v-86.803c0-19.826,14.286-36.406,33.197-40.182
	c-0.263-0.792-0.407-1.636-0.407-2.511V165.775c-29.664-3.993-52.557-28.291-52.557-57.589V16.561c0-4.568,3.854-8.271,8.61-8.271
	c4.755,0,8.61,3.704,8.61,8.271v91.626c0,22.958,19.715,41.635,43.946,41.635c24.232,0,43.946-18.677,43.946-41.635V16.561
	c0-4.568,3.855-8.271,8.61-8.271C314.589,8.291,318.443,11.993,318.443,16.561z M257.266,360.434
	c-13.328,0-24.171,10.664-24.171,23.771v86.803c0,13.107,10.843,23.77,24.171,23.77c13.326,0,24.167-10.664,24.167-23.77v-86.803
	C281.434,371.098,270.592,360.434,257.266,360.434z M132.938,48.712v55.221c0,30.485-22.895,55.765-52.559,59.918v180.263
	c18.699,3.938,32.771,20.415,32.771,40.092v86.803c0,22.603-18.566,40.991-41.388,40.991c-22.823,0-41.391-18.389-41.391-40.991
	v-86.803c0-19.681,14.08-36.163,32.787-40.095V163.85c-29.663-4.156-52.555-29.435-52.555-59.918v-55.22
	C10.603,21.852,32.675,0,59.806,0h23.929C110.866,0,132.938,21.852,132.938,48.712z M71.761,360.434
	c-13.328,0-24.171,10.664-24.171,23.771v86.803c0,13.107,10.843,23.77,24.171,23.77c13.326,0,24.167-10.664,24.167-23.77v-86.803
	C95.929,371.098,85.087,360.434,71.761,360.434z M115.717,48.712c0-17.365-14.347-31.492-31.982-31.492H59.806
	c-17.635,0-31.982,14.126-31.982,31.492v55.221c0,23.88,19.714,43.308,43.944,43.308h0.005c24.231,0,43.944-19.428,43.944-43.308
	C115.717,103.933,115.717,48.712,115.717,48.712z M501.396,384.205v86.803c0,22.603-18.566,40.991-41.388,40.991
	c-22.823,0-41.391-18.389-41.391-40.991v-86.803c0-19.682,14.082-36.164,32.792-40.097v-56.15
	c-17.765-0.117-35.755-8.424-47.029-21.753c-9.309-11.007-13.211-24.351-10.986-37.575l37.288-221.45
	C431.381,3.035,434.969,0,439.173,0h29.456c4.755,0,8.61,3.855,8.61,8.61v270.75c0,4.756-3.855,8.61-8.61,8.61v56.143
	C487.326,348.054,501.396,364.53,501.396,384.205z M451.788,270.75h8.23V17.221h-13.565l-36.078,214.27
	c-1.757,10.436,2.92,18.591,7.151,23.595C425.7,264.749,438.828,270.75,451.788,270.75z M484.175,384.205
	c0-13.107-10.842-23.771-24.167-23.771c-13.328,0-24.171,10.664-24.171,23.771v86.803c0,13.107,10.843,23.77,24.171,23.77
	c13.326,0,24.167-10.664,24.167-23.77V384.205z"/>
</svg>