<?xml version="1.0" encoding="iso-8859-1"?>
<!-- Uploaded to: SVG Repo, www.svgrepo.com, Generator: SVG Repo Mixer Tools -->
<svg height="800px" width="800px" version="1.1" id="Layer_1" xmlns="http://www.w3.org/2000/svg" xmlns:xlink="http://www.w3.org/1999/xlink" 
	 viewBox="0 0 511.999 511.999" xml:space="preserve">
<path style="fill:#FF9811;" d="M348.9,279.869l94.179-38.083c3.832-1.55,8.202-0.937,11.461,1.607
	c3.259,2.544,4.913,6.634,4.338,10.729l-14.204,101.287c-0.574,4.094-3.289,7.572-7.122,9.122c-3.832,1.55-8.202,0.937-11.461-1.607
	l-80.614-62.945c-0.005-0.005-0.01-0.009-0.018-0.014c-5.038-3.934-5.933-11.206-1.999-16.244
	C344.913,281.861,346.819,280.565,348.9,279.869z"/>
<path style="fill:#FFC477;" d="M388.701,399.678l8.756-101.209c0.356-4.118,2.883-7.736,6.629-9.487
	c3.745-1.751,8.14-1.371,11.53,0.998l83.839,58.583c3.388,2.368,5.257,6.364,4.901,10.483c-0.356,4.118-2.883,7.736-6.629,9.487
	l-92.653,43.314c-0.006,0.002-0.012,0.005-0.02,0.009c-5.79,2.707-12.678,0.208-15.384-5.582
	C388.668,404.136,388.377,401.85,388.701,399.678z"/>
<path style="fill:#FF9811;" d="M163.099,279.869L68.92,241.786c-3.832-1.55-8.202-0.937-11.461,1.607s-4.913,6.634-4.338,10.729
	l14.204,101.287c0.574,4.094,3.289,7.572,7.122,9.122c3.832,1.55,8.202,0.937,11.461-1.607l80.614-62.945
	c0.005-0.005,0.01-0.009,0.018-0.014c5.038-3.934,5.933-11.206,1.999-16.244C167.088,281.861,165.182,280.565,163.099,279.869z"/>
<path style="fill:#FFC477;" d="M123.3,399.678l-8.756-101.209c-0.356-4.118-2.883-7.736-6.629-9.487
	c-3.745-1.751-8.14-1.371-11.53,0.998l-83.839,58.583c-3.388,2.368-5.257,6.364-4.901,10.483c0.356,4.118,2.883,7.736,6.629,9.487
	l92.653,43.314c0.006,0.002,0.012,0.005,0.02,0.009c5.79,2.707,12.678,0.208,15.384-5.582
	C123.332,404.136,123.623,401.85,123.3,399.678z"/>
<g>
	<path style="fill:#FFB655;" d="M106.948,411.857c5.79,2.707,12.678,0.208,15.384-5.582c1-2.138,1.29-4.425,0.966-6.595
		l-8.756-101.209c-0.313-3.617-2.302-6.846-5.319-8.765l-40.332,69.855c-5.765,9.983-7.066,21.827-3.945,32.663l41.979,19.624
		C106.934,411.85,106.94,411.853,106.948,411.857z"/>
	<path style="fill:#FFB655;" d="M405.052,411.857c-5.79,2.707-12.678,0.208-15.384-5.582c-1-2.138-1.29-4.425-0.966-6.595
		l8.756-101.209c0.313-3.617,2.302-6.846,5.319-8.765l40.332,69.855c5.765,9.983,7.066,21.827,3.945,32.663l-41.979,19.624
		C405.066,411.85,405.059,411.853,405.052,411.857z"/>
</g>
<path style="fill:#FFC477;" d="M438.189,130.244l-80.841-61.521c-3.29-2.503-7.667-3.062-11.48-1.465
	c-3.813,1.597-6.486,5.108-7.009,9.209l-12.947,101.455c-0.523,4.101,1.181,8.17,4.471,10.674c3.29,2.503,7.667,3.062,11.48,1.465
	l94.336-39.515c0.006-0.003,0.012-0.006,0.021-0.009c5.896-2.47,8.673-9.251,6.203-15.145
	C441.514,133.215,440.015,131.464,438.189,130.244z"/>
<path style="fill:#FFDAAA;" d="M452.363,176.426L401.57,88.449c-2.067-3.58-5.889-5.786-10.022-5.786
	c-4.135,0-7.955,2.205-10.022,5.786l-51.139,88.575c-2.067,3.58-2.067,7.992,0,11.573c2.067,3.58,5.889,5.786,10.022,5.786h102.278
	c0.007-0.001,0.013-0.001,0.022,0c6.392,0,11.573-5.181,11.573-11.573C454.281,180.451,453.576,178.257,452.363,176.426z"/>
<path style="fill:#FFB655;" d="M334.75,109.398c-0.023-0.045-0.051-0.088-0.074-0.133l-8.762,68.657
	c-0.523,4.101,1.181,8.17,4.471,10.674c3.29,2.503,7.667,3.062,11.48,1.465l53.2-22.285
	C390.643,137.044,365.789,112.824,334.75,109.398z"/>
<path style="fill:#FFC477;" d="M395.539,171.822c-1.843-22.041-14.161-41.144-31.937-52.331l-33.216,57.532
	c-2.067,3.58-2.067,7.992,0,11.573c2.067,3.58,5.889,5.786,10.022,5.786h72.75C408.89,185.767,402.906,178.061,395.539,171.822z"/>
<path style="fill:#A4E276;" d="M382.604,248.568c4.682-6.519,7.448-14.507,7.448-23.146c0-17.176-10.899-31.804-26.158-37.351
	c0.95-3.333,1.469-6.846,1.469-10.482c0-21.091-17.099-38.19-38.19-38.19c-4.664,0-9.13,0.838-13.261,2.368
	c-4.416-28.01-28.659-49.432-57.911-49.432s-53.494,21.422-57.911,49.432c-4.132-1.53-8.599-2.368-13.261-2.368
	c-21.091,0-38.19,17.098-38.19,38.19c0,3.637,0.519,7.151,1.469,10.482c-15.259,5.547-26.158,20.176-26.158,37.351
	c0,8.638,2.766,16.626,7.448,23.146H382.604z"/>
<path style="fill:#91DC5A;" d="M256,92.336c-29.251,0-53.494,21.421-57.911,49.431c-4.132-1.53-8.598-2.368-13.262-2.368
	c-21.091,0-38.19,17.099-38.19,38.19c0,3.637,0.519,7.151,1.469,10.482c-15.259,5.547-26.158,20.176-26.158,37.352
	c0,8.639,2.766,16.626,7.447,23.146h56.472c-4.682-6.519-7.448-14.506-7.448-23.146c0-14.276,7.533-26.786,18.837-33.791
	l-0.004-0.001c5.725-3.166,5.839-6.225,5.855-14.042c0.046-21.091,17.113-38.976,38.19-38.19c13.687,0.51,15.127-5.686,15.127-5.686
	l0.02,0.011c4.509-14.657,14.589-26.871,27.79-34.143C275.86,94.968,266.239,92.336,256,92.336z"/>
<g>
	<path style="fill:#FF3F62;" d="M182.012,205.934c-1.998,0-3.954-0.811-5.373-2.22c-1.419-1.419-2.23-3.376-2.23-5.384
		c0-1.997,0.811-3.964,2.23-5.373c1.418-1.419,3.375-2.231,5.373-2.231c2.006,0,3.964,0.811,5.384,2.231
		c1.41,1.419,2.22,3.376,2.22,5.373c0,2.007-0.811,3.964-2.22,5.384C185.976,205.122,184.019,205.934,182.012,205.934z"/>
	<path style="fill:#FF3F62;" d="M271.232,153.731c-1.998,0-3.954-0.811-5.373-2.22c-1.419-1.419-2.231-3.376-2.231-5.384
		c0-1.997,0.811-3.964,2.231-5.373c1.418-1.419,3.375-2.23,5.373-2.23c2.006,0,3.964,0.811,5.384,2.23
		c1.41,1.419,2.22,3.376,2.22,5.373c0,2.007-0.811,3.964-2.22,5.384C275.196,152.92,273.24,153.731,271.232,153.731z"/>
	<path style="fill:#FF3F62;" d="M333.426,209.592c-1.998,0-3.954-0.811-5.373-2.22c-1.419-1.419-2.23-3.376-2.23-5.384
		c0-1.997,0.811-3.964,2.23-5.373c1.418-1.419,3.375-2.23,5.373-2.23c2.006,0,3.964,0.811,5.384,2.23
		c1.41,1.419,2.22,3.376,2.22,5.373c0,2.007-0.811,3.964-2.22,5.384C337.39,208.779,335.432,209.592,333.426,209.592z"/>
</g>
<g>
	<path style="fill:#FFFFFF;" d="M258.433,208.472c-1.998,0-3.954-0.811-5.374-2.22c-1.419-1.419-2.23-3.376-2.23-5.384
		c0-1.997,0.811-3.964,2.23-5.373c1.418-1.419,3.375-2.23,5.374-2.23c2.006,0,3.964,0.811,5.384,2.23
		c1.41,1.419,2.22,3.376,2.22,5.373c0,2.007-0.811,3.964-2.22,5.384C262.397,207.661,260.439,208.472,258.433,208.472z"/>
	<path style="fill:#FFFFFF;" d="M312.472,178.055c-1.998,0-3.954-0.811-5.373-2.22c-1.419-1.419-2.231-3.376-2.231-5.384
		c0-1.997,0.811-3.964,2.231-5.373c1.418-1.419,3.375-2.23,5.373-2.23c2.006,0,3.964,0.811,5.384,2.23
		c1.41,1.419,2.22,3.376,2.22,5.373c0,2.007-0.811,3.964-2.22,5.384C316.436,177.244,314.479,178.055,312.472,178.055z"/>
	<path style="fill:#FFFFFF;" d="M223.928,178.055c-1.998,0-3.954-0.811-5.373-2.22c-1.419-1.419-2.231-3.376-2.231-5.384
		c0-1.997,0.811-3.964,2.231-5.373c1.418-1.419,3.375-2.23,5.373-2.23c2.006,0,3.964,0.811,5.384,2.23
		c1.41,1.419,2.22,3.376,2.22,5.373c0,2.007-0.811,3.964-2.22,5.384C227.892,177.244,225.935,178.055,223.928,178.055z"/>
</g>
<path style="fill:#A78966;" d="M256,407.694c70.626,0,127.879-57.253,127.879-127.879H128.121
	C128.121,350.44,185.375,407.694,256,407.694z"/>
<path style="fill:#957856;" d="M192.197,279.815h-64.076c0,70.626,57.253,127.879,127.879,127.879
	c11.064,0,21.799-1.406,32.038-4.047C232.918,389.427,192.197,339.377,192.197,279.815z"/>
<path style="fill:#806749;" d="M387.975,234.77H124.026c-15.57,0-28.308,12.739-28.308,28.308l0,0
	c0,15.57,12.739,28.308,28.308,28.308h263.949c15.57,0,28.308-12.739,28.308-28.308l0,0
	C416.283,247.509,403.545,234.77,387.975,234.77z"/>
<path style="fill:#6A563D;" d="M173.143,263.079L173.143,263.079c0-15.57,12.739-28.308,28.308-28.308h-77.425
	c-15.57,0-28.308,12.738-28.308,28.308l0,0c0,15.57,12.739,28.308,28.308,28.308h77.425
	C185.882,291.387,173.143,278.648,173.143,263.079z"/>
<path style="fill:#B9D8F4;" d="M45.556,405.513l23.916,35.067c2.156,3.161,5.734,5.052,9.561,5.052h353.934
	c3.826,0,7.404-1.891,9.561-5.052l23.916-35.067H45.556z"/>
<g>
	<path style="fill:#96C8EF;" d="M146.897,440.58l-23.915-35.067H45.556l23.916,35.067c2.156,3.161,5.734,5.052,9.561,5.052h77.426
		C152.631,445.632,149.053,443.741,146.897,440.58z"/>
	<path style="fill:#96C8EF;" d="M476.713,423.258H35.287c-7.5,0-13.635-6.136-13.635-13.635v-3.858
		c0-7.5,6.136-13.635,13.635-13.635h441.426c7.5,0,13.635,6.136,13.635,13.635v3.858
		C490.349,417.122,484.213,423.258,476.713,423.258z"/>
</g>
<path style="fill:#78B9EB;" d="M126.094,409.622v-3.858c0-7.5,6.136-13.635,13.635-13.635H35.287c-7.5,0-13.635,6.136-13.635,13.635
	v3.858c0,7.5,6.136,13.635,13.635,13.635h104.443C132.23,423.258,126.094,417.122,126.094,409.622z"/>
<g>
	<path style="fill:#FFDAAA;" d="M217.21,374.172l-50.794-87.977c-2.067-3.58-5.889-5.786-10.022-5.786s-7.955,2.205-10.022,5.786
		l-51.139,88.575c-2.067,3.58-2.067,7.992,0,11.572c2.067,3.58,5.889,5.786,10.022,5.786h102.278c0.007-0.001,0.013-0.001,0.022,0
		c6.392,0,11.573-5.181,11.573-11.572C219.129,378.196,218.423,376.002,217.21,374.172z"/>
	<path style="fill:#FFDAAA;" d="M294.79,374.172l50.794-87.977c2.067-3.58,5.889-5.786,10.022-5.786
		c4.135,0,7.955,2.205,10.022,5.786l51.139,88.575c2.067,3.58,2.067,7.992,0,11.572c-2.067,3.58-5.889,5.786-10.022,5.786H304.468
		c-0.007-0.001-0.013-0.001-0.022,0c-6.392,0-11.572-5.181-11.572-11.572C292.872,378.196,293.578,376.002,294.79,374.172z"/>
</g>
<g>
	<path style="fill:#FFC477;" d="M140.02,373.198c-1.998,0-3.954-0.811-5.373-2.22c-1.419-1.419-2.23-3.376-2.23-5.384
		c0-1.997,0.811-3.964,2.23-5.373c1.418-1.419,3.375-2.231,5.373-2.231c2.006,0,3.964,0.811,5.384,2.231
		c1.41,1.419,2.22,3.376,2.22,5.373c0,2.007-0.811,3.964-2.22,5.384C143.984,372.387,142.027,373.198,140.02,373.198z"/>
	<path style="fill:#FFC477;" d="M156.406,343.873c-1.998,0-3.954-0.811-5.373-2.22c-1.419-1.419-2.23-3.376-2.23-5.384
		c0-1.997,0.811-3.964,2.23-5.373c1.418-1.419,3.375-2.23,5.373-2.23c2.006,0,3.964,0.811,5.384,2.23
		c1.41,1.419,2.22,3.376,2.22,5.373c0,2.007-0.811,3.964-2.22,5.384C160.37,343.062,158.412,343.873,156.406,343.873z"/>
	<path style="fill:#FFC477;" d="M174.408,372.979c-1.998,0-3.954-0.811-5.373-2.22c-1.419-1.419-2.231-3.376-2.231-5.384
		c0-1.997,0.811-3.964,2.231-5.373c1.418-1.419,3.375-2.23,5.373-2.23c2.006,0,3.964,0.811,5.384,2.23
		c1.41,1.419,2.22,3.376,2.22,5.373c0,2.007-0.811,3.964-2.22,5.384C178.372,372.167,176.415,372.979,174.408,372.979z"/>
	<path style="fill:#FFC477;" d="M348.634,354.476c-1.998,0-3.954-0.811-5.373-2.22c-1.419-1.419-2.231-3.376-2.231-5.384
		c0-1.997,0.811-3.964,2.231-5.373c1.418-1.419,3.375-2.231,5.373-2.231c2.006,0,3.964,0.811,5.384,2.231
		c1.41,1.419,2.22,3.376,2.22,5.373c0,2.007-0.811,3.964-2.22,5.384C352.598,353.665,350.64,354.476,348.634,354.476z"/>
	<path style="fill:#FFC477;" d="M370.997,369.684c-1.998,0-3.954-0.811-5.373-2.22c-1.419-1.419-2.231-3.376-2.231-5.384
		c0-1.997,0.811-3.964,2.231-5.373c1.418-1.419,3.375-2.231,5.373-2.231c2.006,0,3.964,0.811,5.384,2.231
		c1.41,1.419,2.22,3.376,2.22,5.373c0,2.007-0.811,3.964-2.22,5.384C374.962,368.873,373.004,369.684,370.997,369.684z"/>
</g>
<path d="M292.499,415.654h-11.913c-4.2,0-7.604,3.405-7.604,7.604s3.404,7.604,7.604,7.604h11.913c4.2,0,7.604-3.405,7.604-7.604
	S296.699,415.654,292.499,415.654z"/>
<path d="M503.808,342.33l-45.193-31.579l7.793-55.571c0.951-6.762-1.804-13.576-7.188-17.78c-5.384-4.203-12.658-5.223-18.99-2.662
	l-22.069,8.924c-4.722-7.314-12.021-12.807-20.608-15.188c0.065-1.015,2.446-14.553-6.143-26.486h51.276c0.006,0,0.013,0,0.022,0
	c10.575,0,19.176-8.603,19.176-19.177c0-3.695-1.05-7.271-3.04-10.364l-11.998-20.781c4.17-5.347,5.325-12.684,2.592-19.209
	c-1.426-3.406-3.777-6.301-6.807-8.387l-20.9-15.906l-13.577-23.518c-3.415-5.914-9.779-9.589-16.608-9.589
	c-3.492,0-6.859,0.965-9.776,2.695L361.954,62.67c-5.436-4.136-12.724-5.065-19.023-2.427c-6.298,2.639-10.748,8.486-11.613,15.261
	l-0.7,5.486c-0.531,4.166,2.415,7.974,6.58,8.505c4.165,0.533,7.972-2.414,8.505-6.58l0.7-5.485
	c0.845-5.071,3.886-4.691,6.341-2.657l19.381,14.751l-26.623,46.112c-2.01-0.882-4.095-1.621-6.243-2.21l3.601-28.222
	c0.531-4.165-2.414-7.974-6.58-8.505c-4.171-0.538-7.973,2.414-8.505,6.58l-3.653,28.625c-1.521,0.1-3.031,0.266-4.526,0.516
	c-3.562-12.203-10.616-23.227-20.36-31.631C287.228,90.434,271.874,84.731,256,84.731s-31.228,5.703-43.235,16.058
	c-9.744,8.404-16.799,19.428-20.36,31.631c-2.491-0.416-5.022-0.626-7.578-0.626c-25.25,0-45.794,20.543-45.794,45.794
	c0,2.022,0.135,4.04,0.401,6.045c-26.897,14.697-25.053,43.825-24.988,44.84c-8.586,2.38-15.886,7.874-20.608,15.188l-22.069-8.924
	c-6.331-2.56-13.608-1.54-18.991,2.663c-5.384,4.203-8.137,11.017-7.188,17.778l7.794,55.573L8.193,342.33
	c-5.598,3.911-8.71,10.569-8.122,17.371c0.588,6.804,4.796,12.828,10.983,15.721l20.289,9.486
	c-9.831,1.855-17.296,10.496-17.296,20.858v3.858c0,11.711,9.527,21.239,21.239,21.239h18.352l9.551,14.004
	c3.576,5.242,9.498,8.371,15.843,8.371h353.934c6.345,0,12.267-3.129,15.844-8.372l9.55-14.003h18.352
	c11.712,0,21.24-9.527,21.24-21.239v-3.858c0-10.363-7.465-19.003-17.298-20.858l20.29-9.486
	c6.189-2.893,10.396-8.917,10.983-15.719C512.518,352.898,509.406,346.241,503.808,342.33z M445.93,248.836
	c1.311-0.53,2.817-0.318,3.93,0.551c1.114,0.87,1.684,2.279,1.487,3.679l-6.719,47.911c0,0-25.893-18.031-26.535-18.376
	c3.658-5.625,7.729-13.594,5.415-24.699L445.93,248.836z M410.181,382.542c-0.706,1.224-2.023,1.984-3.436,1.984H304.453
	c-2.167,0.035-3.979-1.777-3.978-3.969c0-0.784,0.226-1.539,0.654-2.184c0.086-0.13,0.168-0.264,0.246-0.398l50.794-87.977
	c0.707-1.225,2.024-1.985,3.437-1.985c1.414,0,2.73,0.76,3.438,1.985l51.138,88.575
	C410.889,379.796,410.889,381.317,410.181,382.542z M223.692,370.193l-14.937-25.875c-2.099-3.637-6.751-4.884-10.387-2.783
	c-3.637,2.1-4.883,6.75-2.783,10.387l15.041,26.052c0.078,0.135,0.16,0.269,0.246,0.398c0.428,0.645,0.654,1.4,0.654,2.184
	c0,2.188-1.78,3.968-3.967,3.969h-0.011H105.255c-1.413,0-2.729-0.76-3.437-1.985c-0.707-1.225-0.707-2.745,0-3.969l51.138-88.575
	c0.707-1.225,2.024-1.985,3.438-1.985c1.413,0,2.729,0.76,3.437,1.985l24.649,42.692c2.101,3.637,6.752,4.884,10.387,2.783
	c3.637-2.1,4.883-6.75,2.783-10.387l-15.065-26.094h146.831l-41.107,71.202c-1.99,3.093-3.041,6.671-3.041,10.364
	c0,1.361,0.148,2.688,0.419,3.969h-59.372c0.271-1.282,0.419-2.608,0.419-3.969C226.732,376.864,225.682,373.286,223.692,370.193z
	 M123.261,311.016l-1.044-12.07c0.599,0.029,7.986,0.046,7.986,0.046L123.261,311.016z M381.796,298.991h6.178
	c0.606,0,1.208-0.016,1.808-0.046l-1.044,12.071L381.796,298.991z M388.11,92.251c0.707-1.224,2.024-1.984,3.437-1.984
	c1.414,0,2.73,0.76,3.438,1.985l50.794,87.977c1.335,2.008,1.335,6.064-3.067,6.551c-0.006,0.001-0.016,0-0.024,0h-65.045
	c-1.616-1.148-3.308-2.202-5.076-3.146c0.268-2.004,0.401-4.023,0.401-6.045c0-13.269-5.679-25.232-14.725-33.604L388.11,92.251z
	 M150.705,195.218c3.791-1.244,5.808-5.393,4.714-9.23c-0.782-2.745-1.178-5.57-1.178-8.399c0-16.866,13.721-30.586,30.586-30.586
	c3.652,0,7.225,0.638,10.621,1.896c2.136,0.791,9.013,0.642,10.152-5.946c4.295-24.863,25.127-43.012,50.4-43.012
	c25.274,0,46.297,18.117,50.4,43.012c1.18,7.161,8.013,6.738,10.152,5.946c3.396-1.258,6.969-1.896,10.621-1.896
	c16.866,0,30.586,13.721,30.586,30.586c0,2.83-0.396,5.655-1.178,8.399c-1.093,3.837,1.165,7.409,4.714,9.23
	c23.278,11.943,21.13,31.368,21.099,31.948H129.606C129.575,226.586,130.787,201.754,150.705,195.218z M124.026,242.374h263.95
	c11.416,0,20.704,9.288,20.704,20.705c0,11.416-9.288,20.704-20.704,20.704c0,0-14.752,0.015-14.942,0.029
	c0,0-5.352-11.008-17.427-11.008s-17.409,10.979-17.409,10.979H173.805c0,0-5.49-10.899-17.41-10.979s-17.41,10.979-17.41,10.979
	h-14.959c-11.416,0-20.704-9.288-20.704-20.704S112.61,242.374,124.026,242.374z M60.652,253.064
	c-0.196-1.398,0.374-2.807,1.487-3.677c1.115-0.87,2.621-1.081,3.931-0.551l22.422,9.066c-2.145,10.767,1.757,19.074,5.415,24.699
	c-0.642,0.346-26.535,18.376-26.535,18.376L60.652,253.064z M15.222,358.392c-0.122-1.408,0.523-2.786,1.681-3.595l83.838-58.583
	c1.159-0.809,2.674-0.941,3.953-0.343c1.281,0.599,2.151,1.845,2.274,3.254l3.017,34.884l-21.339,36.959
	c-2.393,4.145-3.102,8.992-2.142,13.558H66.438l-48.944-22.881C16.215,361.046,15.344,359.8,15.222,358.392z M482.745,405.764v3.858
	c0,3.325-2.706,6.031-6.031,6.031H314.55c-4.2,0-7.604,3.405-7.604,7.604s3.404,7.604,7.604,7.604h125.402l-3.705,5.432
	c-0.74,1.086-1.967,1.734-3.28,1.734H79.034c-1.313,0-2.54-0.648-3.279-1.733l-3.706-5.433h185.726c4.2,0,7.604-3.405,7.604-7.604
	s-3.404-7.604-7.604-7.604H35.287c-3.325,0-6.031-2.705-6.031-6.031v-3.858c0-3.325,2.706-6.031,6.031-6.031h172.214
	c0.007,0,0.014,0.001,0.021,0.001c0.031,0,0.062,0,0.092-0.001h269.098C480.039,399.734,482.745,402.439,482.745,405.764z
	 M496.778,358.393c-0.121,1.407-0.993,2.653-2.271,3.251l-48.945,22.881h-20.066c0.961-4.566,0.251-9.414-2.141-13.557
	l-21.338-36.958l3.017-34.884c0.123-1.408,0.994-2.655,2.273-3.254c1.28-0.597,2.795-0.468,3.954,0.342l83.838,58.582
	C496.255,355.605,496.9,356.983,496.778,358.393z"/>
</svg>