<?xml version="1.0" encoding="utf-8"?>
<!-- Uploaded to: SVG Repo, www.svgrepo.com, Generator: SVG Repo Mixer Tools -->
<svg width="800px" height="800px" viewBox="0 0 1024 1024" class="icon"  version="1.1" xmlns="http://www.w3.org/2000/svg"><path d="M161.597 850.945c120.85 24.006 216.772 10.323 272.34-2.196 46.539-10.488 284.518-69.271 386.371-273.361 22.555-45.201 62.66-125.529 29.375-202.718-39.863-92.386-151.961-113.417-163.063-115.306-22.577-3.844-102.128-13.87-163.986 33.175-81.68 62.166-54.127 164.468-97.088 283.167-28.661 79.187-94.836 182.732-263.949 277.237z" fill="#FA1919" /><path d="M433.935 848.75c1.835 4.14 219.981-33.933 348.222-209.252 17.395-23.787 114.207-156.1 67.524-266.849-15.77-37.425-48.319-73.28-65.438-67.514-24.631 8.302 7.403 94.374-19.228 205.353-23.907 99.7-82.032 164.952-106.629 192.57-101.985 114.525-225.844 142.528-224.449 145.69z" fill="#C40000" /><path d="M838.799 361.371c0.737-1.85 1.164-3.992 1.164-6.236 0-0.531-0.023-1.056-0.070-1.574-45.864-76.221-142.973-94.428-153.263-96.186-12.998-2.287-27.965-3.593-43.237-3.593-9.956 0-19.782 0.556-29.452 1.638-7.014 1.868-13.088 5.383-15.91 12.399-10.685 26.356 34.218 74.092 79.703 97.098 64.252 32.494 149.917 25.861 161.064-3.547z" fill="#C40000" /><path d="M294.219 886.174c-48.826-0.078-96.426-5.126-142.38-14.67-4.679-1.091-12.214-9.95-12.214-20.567 0-7.092 3.361-13.399 8.577-17.414 104.276-79.709 172.461-169.877 202.823-267.985 6.71-21.71 10.553-44.212 14.88-66.515 0.516-2.647 1.867-9.752 7.687-14.452 6.765-5.492 15.495-4.393 17.23-4.107 1.505 0.218 10.62 1.723 15.582 9.313 3.801 5.809 3.294 12.343 2.976 15.593-5.216 51.327-16.373 73.136-16.373 73.136-29.112 94.155-89.411 181.029-179.525 258.623 24.211 3.248 52.2 5.101 80.623 5.101 10 0 19.947-0.23 29.836-0.683 47.11-2.425 92.734-9.862 136.502-21.796 8.994-1.214 86.622-18.246 168.478-70.715 39.907-25.597 122.224-79.847 171.727-183.456 25.4-53.127 56.532-120.115 28.859-184.202-31.221-72.357-119.424-95.231-148.415-102.742-25.463-6.356-54.697-10.003-84.78-10.003-1.681 0-3.361 0.011-5.038 0.034-58.167 0.921-103.586 16.81-134.74 47.217-18.12 17.681-28.245 36.897-33.856 64.252-2.033 10.197-10.912 17.775-21.561 17.775-12.129 0-21.963-9.832-21.963-21.963 0-1.628 0.177-3.215 0.513-4.742 7.276-35.489 21.936-63.086 46.183-86.717 92.386-90.157 248.752-52.909 266.278-48.319 34.131 8.852 137.982 35.777 177.724 127.856 37.337 86.512-6.391 174.143-29.88 221.21-24.631 49.417-58.806 94.352-101.578 133.7-34.932 32.142-75.882 60.803-121.686 85.172-84.352 45.439-183.443 75.251-288.69 82.852 67.577-6.597 17.956-0.786-33.020-0.786-0.275 0-0.548 0-0.822-0.001z" fill="#000000" /><path d="M393.787 463.73q-0.812 0-1.647-0.066c-11.411-0.87-20.342-10.343-20.342-21.903 0-0.57 0.021-1.134 0.064-1.694l0.314-4.318c0.95-11.34 10.387-20.183 21.891-20.183 12.129 0 21.963 9.832 21.963 21.963 0 0.513-0.019 1.022-0.052 1.527l-0.326 4.325c-0.865 11.401-10.32 20.328-21.864 20.349z" fill="#000000" /><path d="M587.072 245.859c-10.686 26.356 34.219 74.092 79.703 97.098 64.219 32.494 149.897 25.851 161.043-3.547 10.828-28.552-58.201-53.545-55.554-111.682 1.911-42.684 40.335-63.637 29.386-101.545-3.909-13.573-14.935-31.165-26.861-31.023-24.248 0.297-19.92 69.71-68.415 109.507-49.010 40.225-108.166 13.771-119.302 41.192z" fill="#6BE166" /><path d="M828.422 328.757c-5.963-24.698-58.433-50.185-56.159-101.030 0.395-8.155 2.030-15.812 4.72-22.948 1.165-14.652 10.84-29.532 20.866-41.423 4.294-9.499 6.918-19.239 5.293-30.397-10.985 4.529-20.215 11.368-27.428 19.957-35.155 24.715-17.804 115.049-16.607 120.935 5.118 25.081 10.982 27.531 14.826 56.005 1.266 9.027 1.988 19.456 1.988 30.053 0 1.376-0.012 2.749-0.036 4.118 26.643-2.677 46.915-11.318 51.955-24.617 0.396-2.558 0.622-5.51 0.622-8.514 0-0.752-0.014-1.5-0.043-2.244z" fill="#5BBF57" /></svg>