<svg id="Icons" xmlns="http://www.w3.org/2000/svg" viewBox="0 0 512 512"><defs><style>.cls-1{fill:#8d00af;}.cls-2{fill:#aa0dd1;}.cls-3{fill:#aacfe5;}.cls-4{fill:#cde6f6;}.cls-5{fill:#eef9ff;}.cls-6{fill:#f39e22;}.cls-7{fill:#f9c744;}.cls-8{fill:#fff;}.cls-9{fill:#de57ff;}</style></defs><title>019-beer-export</title><circle class="cls-1" cx="256" cy="256" r="255.98"/><path class="cls-2" d="M512,255.76A255.63,255.63,0,0,0,408.56,50.44C295-33.81,134.69-10.08,50.44,103.44a254.76,254.76,0,0,0-49.93,136,76.89,76.89,0,0,1,14.24,6.88c23.84,14.74,42,41.9,69.91,44.44,19.15,1.75,37.29-9.24,51.1-22.62s24.87-29.51,39.4-42.12a112.53,112.53,0,0,1,157.7,10c14.17,15.89,26.53,37.44,47.68,40,28.75,3.44,51.22-31.63,80-28.95,9.3.87,17.72,5.66,26.73,8A54.5,54.5,0,0,0,512,255.76Z"/><path class="cls-3" d="M48,199.47,30.69,264.06a13,13,0,0,0,9.23,16l39.42,10.56,4.47-16.67-30-8a5.59,5.59,0,0,1-4-6.85L62.14,213.4a5.58,5.58,0,0,1,6.84-4l30,8,4.47-16.68L64,190.24A13,13,0,0,0,48,199.47Z"/><path class="cls-4" d="M48,199.47,32.56,257.09a13,13,0,0,0,9.23,16l24.5,6.57a3.94,3.94,0,0,0,4.82-2.79l.56-2.09a3.93,3.93,0,0,0-2.78-4.82L48.3,264.42a5.59,5.59,0,0,1-4-6.84l14.11-52.65a5.58,5.58,0,0,1,6.84-4l20.6,5.52a3.94,3.94,0,0,0,4.82-2.79l.56-2.08a3.94,3.94,0,0,0-2.78-4.83L64,190.24A13,13,0,0,0,48,199.47Z"/><ellipse class="cls-5" cx="49.63" cy="212.46" rx="10.88" ry="4.94" transform="translate(-168.44 205.41) rotate(-75)"/><ellipse class="cls-5" cx="43.99" cy="233.49" rx="7.54" ry="3.43" transform="translate(-192.93 215.56) rotate(-75)"/><path class="cls-3" d="M110.17,175.58,68.82,329.89a11.94,11.94,0,0,0,8.45,14.63l118.25,31.69a12,12,0,0,0,14.64-8.44L251.5,213.46a11.94,11.94,0,0,0-8.45-14.63L124.8,167.14A11.93,11.93,0,0,0,110.17,175.58Z"/><path class="cls-4" d="M110.17,175.58,68.82,329.89a11.94,11.94,0,0,0,8.45,14.63L182.79,372.8a12,12,0,0,0,14.63-8.45L238.76,210a11.94,11.94,0,0,0-8.44-14.63L124.8,167.14A11.93,11.93,0,0,0,110.17,175.58Z"/><rect class="cls-5" x="102.23" y="179.23" width="13.19" height="53.69" rx="6.59" transform="translate(160.6 433.3) rotate(-165)"/><rect class="cls-5" x="88.02" y="242.28" width="13.19" height="33.63" rx="6.59" transform="matrix(-0.97, -0.26, 0.26, -0.97, 118.95, 533.85)"/><path class="cls-6" d="M117.69,198.46H241.86L202.62,344.92a14.34,14.34,0,0,1-17.57,10.14L96.91,331.44a14.34,14.34,0,0,1-10.14-17.57Z"/><ellipse class="cls-7" cx="130.86" cy="234.71" rx="21.95" ry="12.44" transform="translate(-129.72 300.37) rotate(-75)"/><ellipse class="cls-7" cx="119.9" cy="275.63" rx="13.69" ry="7.76" transform="translate(-177.37 320.11) rotate(-75)"/><circle class="cls-8" cx="175.51" cy="204.01" r="8.45"/><circle class="cls-8" cx="160.16" cy="242.08" r="10.93"/><circle class="cls-8" cx="205.75" cy="232.05" r="10.93"/><circle class="cls-8" cx="187.7" cy="271.67" r="7.11"/><circle class="cls-8" cx="183.96" cy="315.38" r="7.11"/><circle class="cls-8" cx="164.07" cy="288.93" r="9.16"/><circle class="cls-8" cx="132.94" cy="320.35" r="7.11"/><path class="cls-8" d="M241.86,198.46H117.69a17,17,0,0,1,22.95-16,17.08,17.08,0,0,1,34-.36,26.49,26.49,0,0,1,29.63-2,13.22,13.22,0,0,1,26.38,1.24,13.08,13.08,0,0,1-.6,3.93A13.23,13.23,0,0,1,241.86,198.46Z"/><path class="cls-8" d="M245.18,363.61h0a12.84,12.84,0,0,1-12.83-12.83L238.81,196a6.38,6.38,0,0,1,6.37-6.11h0a6.37,6.37,0,0,1,6.36,6.11L258,350.78A12.83,12.83,0,0,1,245.18,363.61Z"/><rect class="cls-8" x="232.35" y="381.41" width="25.65" height="36.97" rx="12.82"/><path class="cls-3" d="M464,199.47l17.31,64.59a13,13,0,0,1-9.23,16l-39.42,10.56-4.47-16.67,30-8a5.59,5.59,0,0,0,4-6.85L449.86,213.4a5.58,5.58,0,0,0-6.84-4l-30,8-4.47-16.68L448,190.24A13,13,0,0,1,464,199.47Z"/><path class="cls-4" d="M464,199.47l15.44,57.62a13,13,0,0,1-9.23,16l-24.5,6.57a3.94,3.94,0,0,1-4.82-2.79l-.56-2.09a3.93,3.93,0,0,1,2.78-4.82l20.59-5.52a5.59,5.59,0,0,0,4-6.84l-14.11-52.65a5.58,5.58,0,0,0-6.84-4l-20.6,5.52a3.94,3.94,0,0,1-4.82-2.79l-.56-2.08a3.94,3.94,0,0,1,2.78-4.83L448,190.24A13,13,0,0,1,464,199.47Z"/><ellipse class="cls-5" cx="462.37" cy="212.46" rx="4.94" ry="10.88" transform="translate(-39.23 126.91) rotate(-15)"/><ellipse class="cls-5" cx="468.01" cy="233.49" rx="3.43" ry="7.54" transform="translate(-44.49 129.08) rotate(-15)"/><path class="cls-3" d="M401.83,175.58l41.35,154.31a11.94,11.94,0,0,1-8.45,14.63L316.48,376.21a12,12,0,0,1-14.64-8.44L260.5,213.46A11.94,11.94,0,0,1,269,198.83L387.2,167.14A11.93,11.93,0,0,1,401.83,175.58Z"/><rect class="cls-4" x="291.64" y="178.15" width="133.13" height="183.64" rx="11.94" transform="translate(-57.67 101.91) rotate(-15)"/><rect class="cls-5" x="396.58" y="179.23" width="13.19" height="53.69" rx="6.59" transform="translate(-39.6 111.37) rotate(-15)"/><rect class="cls-5" x="410.79" y="242.28" width="13.19" height="33.63" rx="6.59" transform="translate(-52.84 116.86) rotate(-15)"/><path class="cls-6" d="M394.31,198.46H270.14l39.24,146.45A14.34,14.34,0,0,0,327,355.06l88.14-23.62a14.34,14.34,0,0,0,10.14-17.57Z"/><ellipse class="cls-7" cx="381.14" cy="234.71" rx="12.44" ry="21.95" transform="matrix(0.97, -0.26, 0.26, 0.97, -47.76, 106.64)"/><ellipse class="cls-7" cx="392.1" cy="275.63" rx="7.76" ry="13.69" transform="matrix(0.97, -0.26, 0.26, 0.97, -57.98, 110.87)"/><circle class="cls-8" cx="336.49" cy="204.01" r="8.45"/><circle class="cls-8" cx="351.84" cy="242.08" r="10.93"/><circle class="cls-8" cx="306.25" cy="232.05" r="10.93"/><circle class="cls-8" cx="324.3" cy="271.67" r="7.11"/><circle class="cls-8" cx="328.04" cy="315.38" r="7.11"/><circle class="cls-8" cx="347.93" cy="288.93" r="9.16"/><circle class="cls-8" cx="379.06" cy="320.35" r="7.11"/><path class="cls-8" d="M270.14,198.46H394.31a17,17,0,0,0-22.95-16,17.08,17.08,0,0,0-34-.36,26.49,26.49,0,0,0-29.63-2,13.22,13.22,0,0,0-26.38,1.24,13.08,13.08,0,0,0,.6,3.93A13.23,13.23,0,0,0,270.14,198.46Z"/><rect class="cls-9" x="250.98" y="80.73" width="10.05" height="64.26" rx="5.02"/><rect class="cls-9" x="219.37" y="95.73" width="10.05" height="51.97" rx="5.02" transform="translate(-23.86 62.23) rotate(-15)"/><rect class="cls-9" x="190.98" y="118.45" width="10.05" height="38.45" rx="5.02" transform="translate(-42.57 116.45) rotate(-30)"/><rect class="cls-9" x="282.58" y="95.73" width="10.05" height="51.97" rx="5.02" transform="translate(533.91 313.73) rotate(-165)"/><rect class="cls-9" x="310.97" y="118.45" width="10.05" height="38.45" rx="5.02" transform="translate(520.81 414.89) rotate(-150)"/></svg>